<?xml version="1.0" encoding="UTF-8"?>
<!DOCTYPE svg PUBLIC "-//W3C//DTD SVG 1.1//EN" "http://www.w3.org/Graphics/SVG/1.1/DTD/svg11.dtd">
<!-- Creator: CorelDRAW -->
<svg xmlns="http://www.w3.org/2000/svg" xml:space="preserve" width="2271px" height="926px" shape-rendering="geometricPrecision" text-rendering="geometricPrecision" image-rendering="optimizeQuality" fill-rule="evenodd" clip-rule="evenodd"
viewBox="0 0 2330.35 950.354"
 xmlns:xlink="http://www.w3.org/1999/xlink">
 <g id="Ebene_x0020_1">
  <metadata id="CorelCorpID_0Corel-Layer"/>
  <path fill="#FFEB00" fill-rule="nonzero" d="M2072.57 860.751c31.2094,-4.40688 53.2426,-25.336 53.2426,-51.4076l0 -376.763c0,-25.7068 -22.0332,-47.0043 -48.8369,-51.7785l-2028.5 0c-26.8073,4.77413 -48.4721,26.0716 -48.4721,51.7785l0 376.763c0,26.0716 21.6648,47.0007 44.0652,51.4076l2028.5 0z"/>
  <path fill="white" fill-rule="nonzero" d="M60.9595 405.037c-20.197,0 -36.3556,15.7913 -36.3556,35.2527l0 361.34c0,19.4613 16.1586,35.2527 36.3556,35.2527l2003.52 0c20.197,0 36.3568,-15.7913 36.3568,-35.2527l0 -361.34c0,-19.4613 -16.1598,-35.2527 -36.3568,-35.2527l-2003.52 0z"/>
  <path fill="#004A91" fill-rule="nonzero" d="M2050.9 816.321c13.5879,0 24.2367,-10.6524 24.2367,-23.8718l0 -342.978c0,-12.851 -10.6488,-23.4997 -24.2367,-23.4997l-1976.35 0c-13.5843,0 -24.2354,10.6488 -24.2354,23.4997l0 342.978c0,13.2194 10.6512,23.8718 24.2354,23.8718l1976.35 0z"/>
  <path fill="white" fill-rule="nonzero" d="M969.448 724.147c-39.6595,-0.364816 -60.5886,-37.8209 -60.2214,-110.528 0,-63.1641 20.5618,-106.862 59.1221,-106.862 39.6583,-0.36724 59.1209,38.559 59.1209,106.862 0.36724,70.8689 -12.8522,110.528 -58.0216,110.528zm-1.0993 -246.033c-72.7087,0 -131.83,54.714 -131.83,135.504 0,78.9506 59.1209,136.967 131.83,136.967 73.076,0 130.725,-55.8145 131.83,-136.967 1.0993,-78.587 -58.7536,-135.504 -131.83,-135.504z"/>
  <path fill="white" fill-rule="nonzero" d="M546.783 482.888l-34.1485 0 -0.368452 171.489c0,22.4005 -19.0965,44.0652 -42.5975,44.0652 -23.501,0 -42.5987,-21.6648 -42.5987,-44.0652l-0.363604 -171.489 -79.3191 0 -0.36724 176.631c0,53.2474 44.7973,96.9454 100.248,96.9454 55.0824,0 99.8833,-43.698 99.8833,-96.9454l-0.368452 -176.631z"/>
  <path fill="white" fill-rule="nonzero" d="M759.035 631.609l71.9731 112.368 -89.5994 0 -58.0203 -124.485 11.3845 0c18.3608,0 33.0492,-22.4005 33.0492,-49.9398 0,-27.543 -14.6884,-53.6147 -33.0492,-53.6147l-19.0941 1.59259 0 227.918 -81.5225 0 0 -262.56 150.188 1.0993c34.889,0 63.5314,33.5425 63.5314,74.9122 0,35.2527 -20.9327,64.9991 -48.8405,72.7087z"/>
  <path fill="white" fill-rule="nonzero" d="M1345.84 482.888l-49.2042 0 0 131.83 -71.6082 -117.51c-7.71084,-14.32 -23.1337,-23.8682 -41.1273,-23.8682 -25.3396,0 -46.2687,19.8286 -46.2687,44.8009l0.36724 226.203 43.698 0 0 -157.901 100.984 151.659c6.24187,9.18101 16.8906,15.4229 29.0108,15.4229 18.7256,0 34.1485,-14.6872 34.1485,-33.0492l0 -237.588z"/>
  <polygon fill="white" fill-rule="nonzero" points="1465.19,483.624 1465.19,746.548 1391.75,746.548 1391.75,483.624 "/>
  <path fill="white" fill-rule="nonzero" d="M1704.98 660.619c-8.81377,35.9883 -38.5554,53.2462 -63.1593,53.6147 -43.6992,1.0993 -60.9571,-38.559 -59.1221,-99.5161 1.8362,-55.0824 26.4401,-99.8833 59.1221,-99.8833 22.4005,0 41.8618,21.0539 52.1433,51.7785l42.2302 -21.5436c-23.1337,-38.313 -64.6282,-64.0162 -112.368,-64.0162 -73.076,0 -132.197,59.8565 -132.197,133.665 0,90.3351 58.0203,135.868 131.098,137.708 55.8133,1.0993 88.8637,-24.6039 114.203,-69.406l-31.9499 -22.4005z"/>
  <path fill="white" fill-rule="nonzero" d="M1922.37 555.229l33.7813 -25.7032c0,0 -36.3532,-54.3504 -102.819,-51.044 -48.4733,0 -90.7035,37.4561 -90.7035,84.0932 0,46.7583 45.1694,78.5834 87.7644,88.4989 22.7677,5.13894 34.1521,18.3584 34.1521,35.9847 0,17.9948 -15.0544,32.4396 -33.4165,32.4396 -35.9883,0.242403 -58.0216,-41.6194 -58.0216,-41.6194l-36.3532 24.9711c0,0 30.847,55.0824 107.594,52.879 48.4721,0 95.4764,-36.2307 95.4764,-82.9891 0,-46.6371 -42.2302,-75.2806 -86.6639,-86.6639 -24.2354,-7.70962 -36.7204,-17.9948 -36.7204,-37.8245 0,-19.8298 16.5234,-35.9847 37.0889,-35.9847 20.5655,0 38.5554,19.4625 48.8405,42.9623z"/>
  <path fill="white" fill-rule="nonzero" d="M144.317 705.789c0,22.0332 18.3584,39.6595 41.1273,39.6595l125.588 0 0 -35.1315 -63.5277 0.246039c-13.5879,0.364816 -22.0332,-5.87827 -21.6648,-19.0977l0.36724 -54.5928 71.9731 0 0 -42.7199 -71.9731 0 -0.36724 -52.879c0,-13.9515 8.81256,-21.2975 21.6648,-21.2975l59.1209 0.368452 0 -36.7204 -121.549 -0.368452c-19.0941,0.368452 -40.7588,20.9303 -40.7588,39.6595l0 182.874z"/>
  <path fill="white" fill-rule="nonzero" d="M1602.53 168.917l-15.7901 -4.40567 45.7766 -164.512 6.54367 0 45.3596 143.581 186.545 -25.7032 -153.496 113.099 77.1156 193.158 -152.762 -124.487 -145.786 96.9442 69.7732 -160.105 -134.037 -122.895 174.428 39.1699 -3.67119 16.1549 -3.67119 16.1586 -53.9819 -12.4837 60.5922 55.8145 -34.5206 78.9543 73.076 -48.4721 72.7087 59.4881 -39.2911 -98.784 70.1381 -51.4076 -85.9294 11.7493 -23.8682 -75.523 -23.4997 83.972 -15.4241 -3.30759 3.67119 -16.1586zm611.29 565.605l0 -0.0727209 -133.912 18.3402 -34.8842 -110.164 -35.6211 128.526 15.7913 4.40688 -3.67119 15.7913 15.4229 3.66998 10.2815 -37.0876 9.91549 31.2142 33.0504 -4.40688 -26.8073 19.8298 17.9936 44.8009 -31.5815 -24.9711 -30.4785 20.5642 15.4229 -34.5206 -23.1361 -21.2963 9.9167 2.20344 3.67119 -15.7913 3.67119 -16.1586 -130.359 -29.3756 96.5769 88.5001 -50.6755 115.671 103.923 -69.0376 109.061 85.1961 -53.9783 -134.4 110.407 -81.4316z"/>
  <polygon fill="#FFEB00" fill-rule="nonzero" points="1602.53,168.917 1636.68,46.6371 1673.03,161.943 1809.27,143.214 1697.27,225.471 1755.66,371.256 1642.92,279.082 1533.49,352.283 1585.64,232.449 1488.32,143.214 "/>
  <polygon fill="#004A91" fill-rule="nonzero" points="1602.53,168.917 1598.12,167.818 1636.31,29.7465 1676.34,156.433 1827.26,135.868 1703.14,226.939 1767.04,386.679 1642.55,284.96 1522.84,365.01 1579.76,233.549 1472.17,134.4 1603.63,164.147 1602.53,168.917 1601.43,173.693 1504.85,151.659 1591.51,231.346 1544.51,339.307 1643.29,273.207 1744.64,355.833 1691.76,223.757 1791.28,150.313 1669.73,167.082 1637.04,63.1593 1605.83,174.427 1601.43,173.693 "/>
  <polygon fill="white" fill-rule="nonzero" points="2093.13,493.904 2076.97,489.499 2121.04,332.33 2164.37,469.669 2330.35,446.9 2193.38,547.519 2260.94,716.438 2125.44,610.311 1995.45,696.608 2058.61,552.291 1939.26,442.493 2096.43,478.114 2093.13,493.904 2089.46,510.063 2052.37,501.614 2098.27,543.845 2070.73,607.372 2126.91,569.552 2185.3,615.454 2153.72,536.135 2206.6,497.208 2141.6,506.021 2122.87,447.636 2104.51,513.367 2089.46,510.063 "/>
  <polygon fill="#FFEB00" fill-rule="nonzero" points="2093.13,493.904 2121.77,389.983 2152.98,488.031 2268.66,471.872 2173.55,542.009 2223.12,666.129 2126.18,590.114 2032.91,652.174 2078.44,547.884 1995.81,471.872 "/>
  <polygon fill="#004A91" fill-rule="nonzero" points="2093.13,493.904 2088.35,492.801 2121.77,373.459 2156.29,482.888 2286.65,464.895 2179.42,543.477 2234.14,680.449 2125.81,595.992 2022.25,665.026 2072.93,549.355 1979.66,463.427 2093.86,489.499 2093.13,493.904 2092.03,498.68 2012.34,480.806 2084.31,546.783 2043.92,638.955 2126.18,584.239 2212.1,651.438 2167.67,540.174 2250.66,479.217 2149.68,493.169 2122.14,406.873 2096.43,499.779 2092.03,498.68 "/>
  <polygon fill="white" fill-rule="nonzero" points="2029.6,389.614 1944.41,320.945 1865.46,373.459 1904.01,284.96 1833.87,220.697 1916.13,239.059 1940.73,150.927 1967.17,234.285 2065.59,220.697 1984.8,280.185 2031.43,389.983 "/>
  <polygon fill="white" fill-rule="nonzero" points="2029.6,389.614 2018.95,402.466 1943.3,341.142 1828,418.258 1884.18,289.366 1777.32,190.95 1904.75,219.593 1940,93.273 1978.56,215.923 2127.28,195.357 2004.99,285.692 2058.98,412.75 2022.25,405.037 2029.6,389.614 2032.91,373.459 2031.43,389.983 2016.38,396.592 1964.6,274.312 2003.9,245.668 1955.79,252.278 1941.84,208.577 1927.88,258.889 1890.42,250.075 1923.84,280.921 1902.91,328.658 1945.14,300.383 2039.88,376.762 2029.6,389.614 2032.91,373.459 "/>
  <polygon fill="#FFEB00" fill-rule="nonzero" points="1916.13,239.059 1940.73,150.927 1967.17,234.285 2065.59,220.697 1984.8,280.185 2027.03,385.576 1944.41,320.945 1865.46,373.459 1904.01,284.96 1833.87,220.697 "/>
  <polygon fill="#004A91" fill-rule="nonzero" points="1916.13,239.059 1911.72,237.955 1940.73,134.033 1970.48,228.774 2083.58,213.351 1990.68,281.653 2038.04,399.899 1944.04,326.822 1854.44,386.311 1898.14,286.428 1817.35,211.883 1917.23,234.652 1916.13,239.059 1915.4,243.829 1850.03,229.142 1909.52,283.856 1876.1,360.603 1944.41,315.07 2016.01,370.889 1978.92,278.35 2047.59,227.674 1963.87,239.423 1941.1,167.449 1919.8,244.932 1915.4,243.829 "/>
  <polygon fill="#FFEB00" fill-rule="nonzero" points="2025.19,775.558 2046.13,700.279 2068.52,771.151 2152.25,759.767 2083.58,810.075 2119.2,899.678 2049.06,844.963 1981.86,889.762 2014.91,814.482 1955.05,759.767 "/>
  <polygon fill="#004A91" fill-rule="nonzero" points="2025.19,775.558 2020.79,774.091 2045.76,683.756 2071.83,766.01 2170.24,752.426 2089.46,811.914 2130.21,914.366 2049.06,850.838 1971.21,902.614 2009.03,815.585 1938.9,750.954 2026.3,770.784 2025.19,775.558 2024.09,779.965 1971.58,768.212 2020.42,813.382 1992.88,876.542 2049.43,839.086 2108.55,884.988 2077.7,808.608 2134.26,766.745 2065.22,776.294 2046.49,717.173 2028.5,781.068 2024.09,779.965 "/>
 </g>
</svg>
