<?xml version="1.0" encoding="utf-8"?>
<!-- Generator: Adobe Illustrator 16.0.0, SVG Export Plug-In . SVG Version: 6.00 Build 0)  -->
<!DOCTYPE svg PUBLIC "-//W3C//DTD SVG 1.1//EN" "http://www.w3.org/Graphics/SVG/1.1/DTD/svg11.dtd">
<svg version="1.1" id="Layer_1" xmlns="http://www.w3.org/2000/svg" xmlns:xlink="http://www.w3.org/1999/xlink" x="0px" y="0px"
	 width="623.62px" height="167.24px" viewBox="0 0 623.62 167.24" enable-background="new 0 0 623.62 167.24" xml:space="preserve">
<rect display="none" width="624" height="167"/>
<g>
	<path fill="#0066FF" d="M215.801,30.068h20.855c7.341,0,13.236,2.095,17.686,6.284c4.449,4.19,6.674,9.714,6.674,16.573
		c0,7.23-2.252,12.894-6.757,16.99c-4.505,4.098-10.743,6.146-18.714,6.146h-2.892v28.252h-16.851V30.068z M232.652,44.306v17.519
		c3.782-0.074,6.571-0.797,8.37-2.169c1.798-1.371,2.697-3.54,2.697-6.507c0-3.188-0.872-5.441-2.614-6.757
		C239.362,45.076,236.545,44.38,232.652,44.306z"/>
	<path fill="#0066FF" d="M273.751,30.068h16.851v57.061h13.348v17.185h-30.199V30.068z"/>
	<path fill="#0066FF" d="M367.295,104.313h-17.519l-2.837-12.402h-17.796l-2.948,12.402h-17.185l19.688-74.245h18.909
		L367.295,104.313z M343.715,78.564c-2.521-11.048-4.413-21.559-5.674-31.533h-0.222c-1.335,10.271-3.208,20.782-5.617,31.533
		H343.715z"/>
	<path fill="#0066FF" d="M368.741,30.068h18.909c4.189,10.678,7.23,18.909,9.121,24.693h0.223c1.891-5.932,4.894-14.163,9.01-24.693
		h19.354l-19.91,40.654v33.591h-17.074V70.723L368.741,30.068z"/>
	<path fill="#FFFFFF" d="M434.033,30.068h34.092v15.906h-17.24v13.57h15.182v15.405h-15.182v29.364h-16.852V30.068z"/>
	<path fill="#FFFFFF" d="M531.08,104.313h-17.518l-2.837-12.402H492.93l-2.948,12.402h-17.185l19.688-74.245h18.908L531.08,104.313z
		 M507.5,78.564c-2.521-11.048-4.412-21.559-5.673-31.533h-0.222c-1.336,10.271-3.208,20.782-5.617,31.533H507.5z"/>
	<path fill="#FFFFFF" d="M540.201,30.068h16.853v74.245h-16.853V30.068z"/>
	<path fill="#FFFFFF" d="M573.516,30.068h19.632c7.934,0,14.2,2.04,18.798,6.118c4.597,4.079,6.896,9.621,6.896,16.628
		c0,3.597-0.872,7.073-2.614,10.428c-1.743,3.356-4.282,5.887-7.619,7.592l13.459,33.479h-17.797L590.645,70.5h-0.277v33.813
		h-16.852V30.068z M590.367,44.417v17.63c7.452-0.148,11.178-2.762,11.178-7.842c0-3.448-0.861-5.914-2.586-7.397
		C597.235,45.326,594.371,44.528,590.367,44.417z"/>
</g>
<g>
	<path fill="#FFFFFF" d="M434.031,30.069h34.092v15.906h-17.24v13.57h15.184V74.95h-15.184v29.365h-16.852V30.069z"/>
	<path fill="#FFFFFF" d="M531.08,104.314h-17.52l-2.836-12.402h-17.797l-2.947,12.402h-17.186l19.688-74.246h18.91L531.08,104.314z
		 M507.498,78.564c-2.521-11.048-4.412-21.559-5.672-31.533h-0.223c-1.334,10.271-3.207,20.782-5.617,31.533H507.498z"/>
	<path fill="#FFFFFF" d="M540.199,30.069h16.852v74.246h-16.852V30.069z"/>
	<path fill="#FFFFFF" d="M573.514,30.069h19.633c7.934,0,14.199,2.04,18.797,6.118c4.598,4.079,6.896,9.621,6.896,16.628
		c0,3.597-0.871,7.073-2.613,10.428c-1.744,3.356-4.283,5.887-7.619,7.592l13.459,33.48H604.27L590.643,70.5h-0.277v33.814h-16.852
		V30.069z M590.365,44.417v17.63c7.453-0.148,11.178-2.762,11.178-7.842c0-3.448-0.861-5.914-2.586-7.397
		C597.234,45.326,594.369,44.528,590.365,44.417z"/>
</g>
<g id="PlayFair_x5F_logo">
	<g>
		<g id="P-shadow">
			<polygon fill="#0066FF" points="51.913,150.285 51.913,116.66 8.591,96.959 8.591,44.608 6.147,43.507 6.147,97.969 
				49.468,117.668 49.468,151.293 68.653,159.547 68.653,157.486 			"/>
			<polygon fill="#0066FF" points="49.726,95.648 25.242,74.953 27.306,73.77 51.791,84.602 51.791,94.486 			"/>
		</g>
		<path id="F-body" fill="#0066FF" d="M68.988,0L0,32.058l71.937,33.419l0.432,101.767l29.189-13.268l-0.078-30.943l43.181-19.883
			l0.078-71.102L68.988,0z M138.301,66.199L94.877,85.797v12.172l43.423-19.186v19.186l-43.423,19.803v33.316l-18.979,8.459V71.563
			l62.402-28.056V66.199z"/>
	</g>
	<g>
		<g id="_x27_F-shadow">
			<polygon fill="#FF3399" points="136.678,97.383 93.537,116.535 93.615,150.42 75.898,158 75.874,159.547 94.877,151.088 
				94.853,117.771 138.276,97.969 138.276,78.783 136.678,79.422 			"/>
			<polygon fill="#FF3399" points="136.678,44.159 136.678,65.066 93.537,84.508 93.615,97.299 94.853,97.969 94.853,85.797 
				138.276,66.199 138.276,43.507 			"/>
		</g>
		<g id="P-body">
			<path fill="#FF3399" d="M72.369,167.244L71.937,65.477L0,32.058v71.171l43.073,19.803v30.945L72.369,167.244z M6.147,97.969
				V43.507l62.506,28.158v87.882l-19.185-8.254v-33.625L6.147,97.969z"/>
			<polygon fill="#FF3399" points="49.649,85.746 49.726,95.648 25.242,85.088 25.242,74.915 			"/>
		</g>
	</g>
</g>
</svg>
