<?xml version="1.0" encoding="UTF-8" standalone="no"?>
<svg width="169px" height="48px" viewBox="0 0 169 48" version="1.1" xmlns="http://www.w3.org/2000/svg" xmlns:xlink="http://www.w3.org/1999/xlink" xmlns:sketch="http://www.bohemiancoding.com/sketch/ns">
    <!-- Generator: Sketch 3.2.2 (9983) - http://www.bohemiancoding.com/sketch -->
    <title>Group 6</title>
    <desc>Created with Sketch.</desc>
    <defs></defs>
    <g id="UI-Elements" stroke="none" stroke-width="1" fill="none" fill-rule="evenodd" sketch:type="MSPage">
        <g id="Group-6" sketch:type="MSLayerGroup" transform="translate(0.000000, -0.250000)" fill="#FFFFFF">
            <path d="M62.99475,18.9197911 L62.99475,33.5058544 L58.8890616,33.5058544 L58.8890616,18.9197911 L53.9892518,18.9197911 L53.9892518,15.2799684 L67.8942623,15.2799684 L67.8942623,18.9197911 L62.99475,18.9197911" id="Fill-1" sketch:type="MSShapeGroup"></path>
            <path d="M78.487706,33.5058544 L78.487706,26.1717722 L72.602757,26.1717722 L72.602757,33.5058544 L68.4970687,33.5058544 L68.4970687,15.2799684 L72.602757,15.2799684 L72.602757,22.5319494 L78.487706,22.5319494 L78.487706,15.2799684 L82.5936919,15.2799684 L82.5936919,33.5058544 L78.487706,33.5058544" id="Fill-2" sketch:type="MSShapeGroup"></path>
            <path d="M98.3600827,28.1969367 C98.3600827,30.9607152 96.443956,33.7792278 91.2980845,33.7792278 C86.152213,33.7792278 84.2363838,30.9607152 84.2363838,28.1969367 L84.2363838,20.5888861 C84.2363838,17.8251076 86.152213,15.0065949 91.2980845,15.0065949 C96.443956,15.0065949 98.3600827,17.8251076 98.3600827,20.5888861 L98.3600827,28.1969367 L98.3600827,28.1969367 Z M94.2543944,20.9446582 C94.2543944,19.5215696 93.3510775,18.6461203 91.2980845,18.6461203 C89.2453891,18.6461203 88.3420722,19.5215696 88.3420722,20.9446582 L88.3420722,27.8411646 C88.3420722,29.2642532 89.2453891,30.1397025 91.2980845,30.1397025 C93.3510775,30.1397025 94.2543944,29.2642532 94.2543944,27.8411646 L94.2543944,20.9446582 L94.2543944,20.9446582 Z" id="Fill-3" sketch:type="MSShapeGroup"></path>
            <path d="M106.517606,27.8411646 L104.109058,27.8411646 L104.109058,33.5058544 L100.003072,33.5058544 L100.003072,15.2799684 L107.585162,15.2799684 C112.019627,15.2799684 113.661724,17.031462 113.661724,20.4520506 L113.661724,22.6961519 C113.661724,24.9676203 112.840526,26.5001772 111.006817,27.2664557 L115.413611,33.5058544 L110.541472,33.5058544 L106.517606,27.8411646 L106.517606,27.8411646 Z M109.556035,20.8351899 C109.556035,19.4671329 109.035944,18.9197911 107.366176,18.9197911 L104.109058,18.9197911 L104.109058,24.2837405 L107.366176,24.2837405 C109.118063,24.2837405 109.556035,23.654 109.556035,22.2856456 L109.556035,20.8351899 L109.556035,20.8351899 Z" id="Fill-4" sketch:type="MSShapeGroup"></path>
            <path d="M121.956113,33.7792278 C117.521945,33.7792278 115.27734,31.508057 115.27734,28.1969367 L115.27734,20.5888861 C115.27734,17.2230316 117.521945,15.0065949 121.956113,15.0065949 C124.063852,15.0065949 126.22604,15.2799684 127.786315,15.5810063 L127.293597,19.1660949 C125.705949,18.9197911 123.270028,18.7279241 121.956113,18.7279241 C119.90312,18.7279241 119.383028,19.7952405 119.383028,21.2183291 L119.383028,27.4850949 C119.383028,28.9081835 119.90312,30.0852658 121.956113,30.0852658 C122.77731,30.0852658 123.324775,30.0576013 124.392331,29.9207658 L124.392331,24.3381772 L128.25166,24.3381772 L128.25166,32.9037785 C126.253414,33.4784873 124.063852,33.7792278 121.956113,33.7792278" id="Fill-5" sketch:type="MSShapeGroup"></path>
            <path d="M145.414384,33.5058544 L141.144456,33.5058544 L140.159019,29.9484304 L134.055085,29.9484304 L133.069648,33.5058544 L128.79972,33.5058544 L134.35619,15.2799684 L139.83054,15.2799684 L145.414384,33.5058544 L145.414384,33.5058544 Z M134.985775,26.5272468 L139.173583,26.5272468 L137.093514,18.8924241 L134.985775,26.5272468 L134.985775,26.5272468 Z" id="Fill-6" sketch:type="MSShapeGroup"></path>
            <path d="M152.148796,18.9197911 L152.148796,33.5058544 L148.04281,33.5058544 L148.04281,18.9197911 L143.143298,18.9197911 L143.143298,15.2799684 L157.048011,15.2799684 L157.048011,18.9197911 L152.148796,18.9197911" id="Fill-7" sketch:type="MSShapeGroup"></path>
            <path d="M157.493718,33.5058544 L157.493718,15.2799684 L168.962511,15.2799684 L168.962511,18.9197911 L161.599407,18.9197911 L161.599407,22.2582785 L168.387673,22.2582785 L168.387673,25.8981013 L161.599407,25.8981013 L161.599407,29.8660316 L168.962511,29.8660316 L168.962511,33.5058544 L157.493718,33.5058544" id="Fill-8" sketch:type="MSShapeGroup"></path>
            <path d="M23.5100423,47.8929114 C36.4915035,47.8929114 47.0153239,37.3717532 47.0153239,24.3929114 C47.0153239,11.4143671 36.4915035,0.892911392 23.5100423,0.892911392 C10.5282835,0.892911392 0.00476056338,11.4143671 0.00476056338,24.3929114 C0.00476056338,37.3717532 10.5282835,47.8929114 23.5100423,47.8929114 Z M23.5100423,14.9241962 L12.9871144,17.6793481 L12.9871144,21.9640823 L19.376088,20.7397025 L19.376088,32.6809747 L23.5100423,33.598962 L27.6439965,32.6809747 L27.6439965,20.7397025 L34.0329701,21.9640823 L34.0329701,17.6793481 L23.5100423,14.9241962 Z M28.7966479,22.4926835 L28.7966479,33.4728354 L23.5100423,34.9967658 L18.2234366,33.4728354 L18.2234366,22.4926835 L15.2022641,23.1021962 L15.2022641,35.9111835 L23.5100423,37.7409114 L31.8175229,35.9111835 L31.8175229,23.1021962 L28.7966479,22.4926835 Z M23.5100423,11.0449114 L15.0177923,13.1860886 L15.0177923,16.0135253 L23.5100423,13.7973861 L32.0022923,16.0135253 L32.0022923,13.1860886 L23.5100423,11.0449114 Z" id="Fill-9" sketch:type="MSShapeGroup"></path>
        </g>
    </g>
</svg>